<svg xmlns="http://www.w3.org/2000/svg" viewBox="0 0 1000 1000">
  <path stroke="#000" stroke-miterlimit="10" d="M637.7 404.1c-6 33.4-22.4 57.4-40.8 56.7a.4.4 0 0 1-.1 0 21 21 0 0 1-6.7-1.4l.6 2.8a165.4 165.4 0 0 1 2.6 28.7v5.1a3.4 3.4 0 0 1 0 .5v.1A209.8 209.8 0 0 1 592 518a96 96 0 0 1-2 11.9 1 1 0 0 1 0 .2 2.1 2.1 0 0 1-2 1.5.1.1 0 0 1-.1 0 7.4 7.4 0 0 1-7.1-5.9l-.1-.7a169.8 169.8 0 0 1-2-23.8V495c0-5 0-10 .3-14.4l.2-2.8v-.5a19.6 19.6 0 0 0-13.4-18.3l-2.2-.5a234.4 234.4 0 0 1-30.7-10.8q-7.1-3-13.6-6.3a203 203 0 0 1-19.6-11 2.9 2.9 0 0 0-3.9.7l-.1.2q-1.4 1.9-2.9 3.5c-1 1.3-2.1 2.5-3.2 3.6-1-1.1-2.2-2.3-3.2-3.6-1-1-2-2.3-2.9-3.5l-.1-.2a2.9 2.9 0 0 0-3.9-.7 202.7 202.7 0 0 1-19.6 11q-6.5 3.2-13.6 6.3a235 235 0 0 1-30.7 10.7l-2.2.6a19.6 19.6 0 0 0-13.5 18.3v.5l.2 2.8c.3 4.5.4 9.3.4 14.4v6a169.8 169.8 0 0 1-2.1 23.8l-.1.7a7.4 7.4 0 0 1-7 6 .1.1 0 0 1-.2 0 2.1 2.1 0 0 1-2-1.6 2 2 0 0 1 0-.2 96 96 0 0 1-2-12 207.2 207.2 0 0 1-1.2-21.2 1.7 1.7 0 0 1 0-.5v-5.2a164.3 164.3 0 0 1 2.6-28.6l.6-2.8a21 21 0 0 1-6.7 1.4.4.4 0 0 1-.1 0c-18.5.6-34.9-23.4-40.8-56.8h-.2c-5.2 16.6-4.9 44.8 1.8 76.3a250 250 0 0 0 2.3 9.7c8.7 35.2 22.9 64.2 36.5 77.7a228 228 0 0 0 57.7 43.7.1.1 0 0 0 .1 0 99 99 0 0 0 49.7 11.7h.2c20 0 37.8-4.6 49.7-11.7a227.7 227.7 0 0 0 57.8-43.7c13.6-13.5 27.8-42.5 36.5-77.7.8-3.3 1.6-6.5 2.2-9.7 6.7-31.5 7.1-59.7 1.9-76.3Zm-93 146.5a20.6 20.6 0 0 1-18.5-2 20.1 20.1 0 0 1-6.8-7.5l-.4-.7a8.6 8.6 0 0 1-.7-1.8 8.7 8.7 0 0 1-.4-2.3 8.4 8.4 0 0 1 1.5-4.7 8.5 8.5 0 0 1 5.5-3.6l.7-.1a11.2 11.2 0 0 0 9.4-11.2 11 11 0 0 0-1.3-5.1 11.2 11.2 0 0 0-10-6.1 11 11 0 0 0-3 .4l-.4.1a9.6 9.6 0 0 0-1 .4v-.1a118.8 118.8 0 0 1-29.6 3.6h-.2a118.7 118.7 0 0 1-29.6-3.6l-1-.3h-.3a11.2 11.2 0 0 0-13.1 5.6 10.9 10.9 0 0 0-1.3 5.1 11.2 11.2 0 0 0 9.5 11.1h.7a8.4 8.4 0 0 1 7 8.4 8.7 8.7 0 0 1-.4 2.3 8.6 8.6 0 0 1-.8 1.8l-.3.7a20.3 20.3 0 0 1-6.8 7.5 20.6 20.6 0 0 1-18.6 2 19.4 19.4 0 0 1-12.8-19.8v-1.1a5.4 5.4 0 0 1 .1-.8v-.4a201.3 201.3 0 0 0 .5-31.6v-1.6c3-1.1 6-2.3 9.1-3.7l2.6-1a259.9 259.9 0 0 0 37.8-20.5 8.3 8.3 0 0 1 10.4 1.2l2.1 2q2.6 2.5 5.2 4.5h.2a73.2 73.2 0 0 0 7.2-6.5 8.3 8.3 0 0 1 10.5-1.2c3.7 2.4 7.7 5 11.9 7.3q4 2.4 8.3 4.6c6 3.2 11.8 6 17.5 8.5l2.6 1.1a131 131 0 0 0 9.3 3.8v1.5a239 239 0 0 0 .4 31.7v.4a5.4 5.4 0 0 1 0 .8 8 8 0 0 1 .2 1 19.4 19.4 0 0 1-12.9 19.9Z"/>
  <path d="m394.8 298-3 .6-6.6 1.4c-18 4.2-32.2 10-39.5 16l-.8.7.5 15.5v1.1l4.8 3.7.3.3a5 5 0 0 1 1.8 4 116 116 0 0 0 2.4 18l1 4.8a146.8 146.8 0 0 0 4.6 15.6 88.5 88.5 0 0 0 2.4 6.1 2 2 0 0 1 .1.3 7 7 0 0 0 5.5 4l4 .3a226.5 226.5 0 0 0 35.9.3c17.2-1.1 33-4 45.2-7.6l2.4-.7a16.8 16.8 0 0 0 9.5-9.6v-.3l6-15.5 6.5-17a12.9 12.9 0 0 1 23.6-.5l.2.5 6.4 17 6 15.6v.2a16.8 16.8 0 0 0 9.5 9.6l2.3.7h.1a207 207 0 0 0 45.2 7.6 226.5 226.5 0 0 0 35.9-.2l4-.5a7 7 0 0 0 5.5-3.8 2 2 0 0 1 .1-.4 127.6 127.6 0 0 0 7-21.7c.4-1.7.8-3.3 1-4.9a116 116 0 0 0 2.4-18 5 5 0 0 1 1.9-3.9l.3-.2 4.7-3.8v-1l.6-15.6-.8-.6c-11-9.1-37.5-17.6-69-21-22.5-2.6-43-2-57.6.8l-1.5.3a87.9 87.9 0 0 1-31.7 0l-1.6-.3a196 196 0 0 0-57.6-.8c-5.1.5-10.1 1.2-15 2Zm-1.7 8 4.7-1.2 4.5-1c4.4-.8 9-1.6 13.6-2.2l10.8-1a137.3 137.3 0 0 1 34.1 2l.8.1.7.1a14.8 14.8 0 0 1 11 14.3v1.5l-.2.9a167.7 167.7 0 0 1-4.6 22.9l-.2.5-.7 2.6a163 163 0 0 1-5.8 16.5 7 7 0 0 1-.3.8.8.8 0 0 1 0 .2 34.9 34.9 0 0 1-23.2 19.8 1.4 1.4 0 0 0-.3 0l-3.4.7a160.7 160.7 0 0 1-22.6 2.4l-5.2.2a167 167 0 0 1-29.4-2.2l-3.5-.6a.6.6 0 0 0-.2 0l-.4-.1a11.3 11.3 0 0 1-6.2-4 11 11 0 0 1-1.2-1.7 88.8 88.8 0 0 1-7.3-29.8v-.8l-.4-6.7c0-3 0-5.9.2-8.6v-1.4a1 1 0 0 0 0-.1 19.1 19.1 0 0 1 9.9-14.7c2.3-1.2 4.8-2.4 7.4-3.5a110.8 110.8 0 0 1 11-4 242 242 0 0 1 6.4-1.8Zm227.7 40.8v.9c-1 12.2-3.9 23-7.4 29.7a11.3 11.3 0 0 1-7.4 5.7h-.4a.6.6 0 0 0-.2 0l-3.6.7a166.8 166.8 0 0 1-29.3 2.2l-5.2-.2a160.7 160.7 0 0 1-22.6-2.5l-3.4-.6a1.4 1.4 0 0 0-.3 0 34.9 34.9 0 0 1-23-19.7s0-.1-.1-.2a7 7 0 0 1-.3-.8 163 163 0 0 1-5.7-16.3 110.2 110.2 0 0 1-1-3.1 167.7 167.7 0 0 1-4.6-22.8.1.1 0 0 1 0-.1l-.1-.9v-.2a11.3 11.3 0 0 1 0-1.3 14.8 14.8 0 0 1 11-14.3l.6-.1.8-.1a137.3 137.3 0 0 1 34.1-2q5.3.3 10.8 1c15.3 1.9 29.1 5.5 40.1 10.1 2.7 1.2 5.2 2.3 7.5 3.6A19.1 19.1 0 0 1 621 330a1 1 0 0 0 0 .2v1.3a110.4 110.4 0 0 1-.1 15.4Z"/>
  <g data-name="No FX Strands">
    <path d="M319 194.9c-62.3-8.7-127.4 35.5-135 99.5A188.4 188.4 0 0 0 203.9 405c-14.6-16.7-21.1-48.4-24.4-72.4-9.3-59.3 23.8-121.6 82-140.5a145.4 145.4 0 0 1 58.6-7.4Z" data-name="single strand 7"/>
    <path d="M315.1 250c-81.6-4.3-144.2 19.2-106 112a227 227 0 0 0 22 42.5c-7.5-3-12.5-18.7-18-26.7-16.1-32.2-32.3-77.2-6.3-108.5 8.8-16.5 116.6-46.7 108.3-19.3Z" data-name="single strand 6"/>
    <path d="M656.9 206.2c50.7 47 120-24.4 32.8-72.7-27.3-18.7-58.2-1.3-53.3-24.8 35.7-.4 70.7 18.3 91.6 47.5 39.3 51.2-42.1 96.3-71.1 50Z" data-name="single strand 5"/>
    <path d="M557.7 66c-57-42.5-140.2-18.8-173.7 41.9-16.3-3.2 22.2-38 28.7-43.9a122 122 0 0 1 101-27c12.3 3.6 61.4 13 44 29Z" data-name="single strand 4"/>
    <path d="M427.5 84.3c-33.3-23-86.5-18.1-106.1 20.3a82.4 82.4 0 0 0-9 40.2l-4.5.2c-6.5-58 51.5-99.2 105.1-80a110 110 0 0 1 20.8 9.3Z" data-name="single strand 3"/>
    <path d="M345 121.8c-60.6-24-104.5 34-93.6 91.1 7.9 30.6 5 30.2-2.6.5-8.6-39.4 7-90 49.3-102.3a88.6 88.6 0 0 1 50 1.3Z" data-name="single strand 2"/>
    <path d="M602.3 69c-13.5-48.5-79-51.7-120.8-49.8-29.3 2.7-58 13.6-80.9 32.2-23.8 14.2-55.8 75.9-16.1 24.6C429 22.7 512.3 13 572.2 44.7A38.5 38.5 0 0 1 591.5 88l10.7 2a57.1 57.1 0 0 0 0-21Z" data-name="single strand 1"/>
    <path d="M672 234.4c51 25.6 69.4-42.9 19-67.8a90.9 90.9 0 0 0-39-12.9c-4-29.3 43.2 2.4 53.6 11.6 47.9 33.8 8.3 104-33.7 69.1Z" data-name="strand 38"/>
  </g>
  <g data-name="No FX Brunches">
    <path d="M640.3 642.1c56.7-106.8 86.7-64.2 50-184.8a134.4 134.4 0 0 1-59.4 76.5c.5 14.8 2.1 74.9 9.4 108.3Z" data-name="base hair 12 no FX"/>
    <path d="M689.3 379a81.7 81.7 0 0 0-8.9-16.8c-9.5 31 0 62 9.8 91.7 6.9-24.3 8.3-51-.9-74.8Z" data-name="base hair 11 no FX"/>
    <path d="M246.6 419.5a111.2 111.2 0 0 1 3.3-23.2 121.6 121.6 0 0 1-33.2 46.3l.9 12.9c-22 29.8-47.7 57-80.2 75.5l.7 1.4c32.3-10.5 59.4-33 81.3-58.5v.1c7.7-9.3 15.5-18.8 20.4-30 4-7.8 8-15.5 6.8-24.5Z" data-name="base hair 10 no FX"/>
    <path d="M753.8 432.3c-5.6-8.1-7.1 16.4-7.9 19.4-7.7 22.4 9.1 79.7 33 94.3a2.2 2.2 0 0 0 3.5-1c11.4-39.6-11-46.7-28.6-112.7Z" data-name="base hair 7 no FX"/>
    <path d="m409.5 766-.7 1.5c-72-31.1-92.1-125.4-79-196.2h-.6a216 216 0 0 0 13.6 128.4c22.1 45.4 18.9 22.2 2.3 68.3-44.1-47.6-59.7-121.3-33.1-181.3 5.5-13.3 14.7-25.6 17-40.3a45.8 45.8 0 0 0-15.7-40c-14.6-12.8-33.5-19.7-46.7-34.1-28-29.5-20.4-74.7-4.6-108.4l-.4-.2c-11.8 29.3-19 56-45 77-35.8 32.2-93 38.8-129 3.5l1-1.2c29 26 73.3 27.6 105.2 6 25.5-17 22.5-13.7 22.7-43 .4-10.3 1.1-20 2.2-29.7a366.9 366.9 0 0 0 45.5-36.6 325 325 0 0 0 41.8-48c-.5 15.2 16.2 26.7 31.6 22.2-6.7 4-8.5 11.3-7.9 18.6.5 22.1-1.5 45.2.2 67.5a98.5 98.5 0 0 1-64.1 2.8l-.4 1.5c20.8 6.4 44 6.7 64.7-1 1.8 42.1 18 91.5 30 132l-1.8-2c15.5 47.9 24.3 74.4 26.2 96.6-33.8-32.6-23.9-85.1-52.8-120.5-23.3-31-55.5-34.8-50-82.7h-.3c-5.7 48 26.4 52.1 49.8 83.1 34 44.4 22.3 86.7 20.9 137.2.9 25.4 5.9 50.6 13.3 74.9 4.2 17.8 28 34.7 44 44.2Z" data-name="base hair 2 no FX"/>
  </g>
  <path d="M834 662c-.4 31.7-18 60.4-34.5 86l-1.3-.8c17.1-30.4 42-73 23-107.4-9-14.3-24.7-19.7-38-30.7a104.8 104.8 0 0 1-25-28.7c-2.8 1.2-28.3 36.7-32.3 27.7a77.4 77.4 0 0 1-12.6-33.8c-1.8-13.3 3.6-25.9 5.2-39 2.3-19.8-2-40-10.9-57.8l-.4.2c25.4 53.5-1.4 66.4 6.7 106.6a86.4 86.4 0 0 0 11.5 25.6c35 66.2 51.8 150.3 24.8 222l-1.5-.5c18-67.7-3.5-142-39.4-200-14.4 14.1-31.8 32.4-49.5 48.6-24.5 39.8-20.3 92.3 5.6 130.6a135 135 0 0 0 52 47.5C768 881.3 824 877 808.8 806.6l1.5-.5c9.2 24.3 6.4 58-20.4 69.4-56.5 19-118.7-16-149.4-63.5-54.5-79-12.6-160.8 39.1-228 8.4-11.8 19.4-22 25.1-35.4 9.9-27.8-5.8-57.6-11.7-84.8l-2.2-7.9c7.3-25 9-52.5-.7-77-10.9-24.7-12.3-11.8-1.1-41l-.4-.1a152.3 152.3 0 0 0-8.3 23 107.2 107.2 0 0 1-28.6-80.4h-.3c-2.9 30.2 9 58.8 28.7 81.3-10 31.7-.2 63.4 9.7 93.8a146.8 146.8 0 0 1-11.7 28c-11 20-27.7 36.7-47.2 48.6-1.6-50.7 9.3-60.5 16.5-115.9 8.8-56.2-5.3-98.3-11.6-149.8a96.1 96.1 0 0 1 5.3-29.6c43.6 24 77.2 64.2 76 116-.7 28.2-4.9 56.4-1.2 84.6 3.8 56.4 31 107.3 62.6 152.7 10.2 13.3 25 21.2 37.7 32.1a52.1 52.1 0 0 1 17.9 39.8Z" data-name="base hair 9"/>
  <path d="M409.2 967.7c-22.2 12.1-45.6-3.6-49-27.4-3.7-22 6.4-44.6 20.8-60.7a43.9 43.9 0 0 0 .8-42.8c-10.8-14.5-28.8-24.7-42-37.5a196.4 196.4 0 0 0 10 79.6l-1.4.6a204 204 0 0 1-22-94c-54.2-63.9-86.9-153.2-95.4-248.2a59.5 59.5 0 0 1 57-27.3l.2-.9c-68.4-11.7-97 81-83 134.4a166.7 166.7 0 0 0 7.8 26c3.4 8.5 9 16.2 12 25.1a109 109 0 0 1 4 55.5c-2.2 18.6 6 35.5 13 52.2 7.3 20.2 20.2 43.9 24.5 65 3.1 28.7-37 40.1-46.6 11l1.5-.6a21.7 21.7 0 0 0 40.7 2.6c4.3-8.3 1.4-17.6-1.8-25.8-10-24.5-22.3-51.8-32.2-76.5a61.5 61.5 0 0 1-2.4-10.5c-3.1-15 1.7-30 .4-45a95.3 95.3 0 0 0-11.6-38.4c-7.3-12-11.7-25.7-15-39.4-10.6-42-.5-88.3 27.3-121.6-1.4-8.2-2.7-15.9-3.8-23.3-52 61.6-113.3 10.5-128.8 97.2l-1.6-.1c-.6-27.3 13.4-56.9 41-65.5 17-5.4 33.3-7.5 48.4-16.3 31.1-18.5 53.1-51.2 65-84.8 2.2 42.1 35.8 55.8 64.7 77.8 27.3 26.5 11.3 49.5-2.7 77.3a165.7 165.7 0 0 0-13 86c4.7 45.7 28.7 87 62 118 14.6 16.2 37 28.7 41.3 52 2.8 15.6.7 32.8-9.4 45.3-5 5.6-9.4 9.1-13 15.3-20 27.4-10.7 79.4 31.7 64.3Z" data-name="base hair 6"/>
  <path d="M927.1 723.6c-16 47.3-64 49.4-101.8 26-21.9-13-43.7-36.4-41.3-63.6 2.9-35 16.2-100.4-8.2-127.8-2.2 2.2-6.2 12.7-10.3 8.4a283.6 283.6 0 0 1-39.2-82 302 302 0 0 1-9.6-95.6c10.9-70.9-12.3-119-74.8-154.4-9.2-10.2-6.8-28.6 4.1-36.7 76.7-41.7 95 191.4 105.2 224-8 29.3-13 45-2.4 82.6 23.5 58 53.8 36.5 48.3 116.3-1 22-3.9 44.2-7.2 65.8a36.5 36.5 0 0 0 2.8 20c21.7 51.4 108.8 83.5 133 16.5Z" data-name="base hair 3"/>
  <path d="M458 737c-6.1-26.1-23.8-47.8-40-68.5-26-28.3-54-45.4-61-86.9.8 21.9-5.4 43.3-3.7 65.3a291 291 0 0 0 13 72.7c3.6-9.5 16.6-49.3 18.5-74a226.5 226.5 0 0 1 46.4 49.5c44 51 22.5 103.8-32.5 133.7l.7 1.4c33.7-17.4 67.2-52.2 58.6-93.2Z" data-name="base hair 1"/>
  <path d="M679.6 145.3c-18.7-18.3-25.1-38.2-48.7-40.4-18-2.4-36 8.3-43.5 24.9l-.4-.2c8-21 32-32.7 53.6-26.8-17.5-17-34-25.5-55.7-26.6C567.6 19 467.7 55.5 428.5 71c-19.9 8.2-38.5 22.2-60 25a139.4 139.4 0 0 0-19.8 96.8l-1.5.2c-6-32.7-.6-67.6 16.3-96.4-41.6 19-82 57.3-97.2 89.7a280.2 280.2 0 0 1 59.9-13v1c-21.3 3.3-42 9.4-62 17.2-11.6 20.4-17 41.2-23.4 67.4a166.9 166.9 0 0 1 75.3-9.3 164.6 164.6 0 0 0-76.8 15.6c-1.7 7.2-4.5 21.2-6 28.7a88.6 88.6 0 0 1 58.8-26.2 106 106 0 0 0-53.5 28.9c-15 14-13 47.6-17.5 62.2q-5 3.6-9.7 7.6a170.2 170.2 0 0 0-62.3 126.7h1.5a164 164 0 0 1 44.6-101 179 179 0 0 1 26.1-22.5c58-42 131.5-107.9 103.8-187a111.6 111.6 0 0 1-17.7 107c-1.2 22.2 24.3 30.1 42.5 17.4 10.5-6.1 24.7-11.1 27.4-22.7a48.8 48.8 0 0 1 9.9 31.6c1.3 36.7-24 70.5-57.5 84l.3 3.4c45.7-15.6 78.5-71.7 57-117.7a37.6 37.6 0 0 0-10.2-11.8c-3.7-15.9-15.3-38.8-7-58a47.2 47.2 0 0 1 8.7-13.8 152 152 0 0 1 4.2-39.3 131.3 131.3 0 0 1 26.2-53.6 126 126 0 0 1 58-39.4C514.8 52 622.5 70.8 569.3 140l-.3-.3c39.5-51.5-11.6-75.2-59.1-75.2a125.5 125.5 0 0 0-89 33.5c-27.9 26-41.6 64.7-40.9 102.3h.1c-4.6 54 11.3 110 47.9 150.5l1.2-1c-36-44.5-47.7-104.6-37-160.1 15-11.4 35.8-25.7 59-25.2 46.8-8.7 33.4-73-10.6-72v-.2c42-1.6 58.7 58.7 15.7 72.4 61.6 9.4 74.7-75 10.2-77.8v-.2c35.1-2.6 58 39.3 33.6 66 19.3-8.6 72.8-2 89.6 12.6 10.7 8.7 32.4 52.4 48.9 65.7a28.4 28.4 0 0 1 16.1-40.4c33-6.7 53.1-13.7 24.9-45.3Z" data-name="base hair 0"/>
</svg>
