<svg xmlns="http://www.w3.org/2000/svg" viewBox="0 0 1000 1000">
  <g data-name="Strands D">
    <path d="M245.8 503c-44.3 44-72 110.1-45.3 170.4 44 72.7-3.7 92.7 15.3 173.2-13.5-24.7-13.5-64-8.7-93.6 6.7-65.5-58.9-98.1-27-183.6-21 36.7-31.2 78-13.6 118.5 8.6 17.1 6.4 18.7-2.4 1-26-49-5.7-103.6 23.4-146.5-29.6 10.3-81.4-19.6-110.6 19 45.8-67 100.3 35.1 161.3-89.2l10.6 5.7A352.7 352.7 0 0 1 233 502c2.7-2 6-3.2 9-4.6Z" data-name="strand 24"/>
    <path d="M763.4 481.2c1.3 33.9 23.4 58.4 54.1 70.8 36.3 21.6 77.8 65.3 62.3 110.8-23.1 41.3-66.4 51.4-64.2 109.6-2.5 58.8 69.3 96 116 60.4-3 7.8-20.3 11.8-29.4 14.6a75.2 75.2 0 0 1-81.6-38.3C780.7 710.9 875.7 695 877 645.4c-2.3-52-52.4-80.3-92.8-102.6-18.7-14.4-28.5-37.8-30.6-60.7Z" data-name="strand 42"/>
  </g>
</svg>
