<svg xmlns="http://www.w3.org/2000/svg" viewBox="0 0 1000 1000">
  <g data-name="Strands B">
    <path d="M704 635.3c-59.2 40-52.8 198.8 40 145.7-88 75.5-130.7-96.3-76.8-153.7 3-5 5.8-9.7 9.3-14.5Z" data-name="strand 43"/>
    <path d="M533.4 99.6c-76-101-278.3-44.5-244 94.3C243.6 49.2 464-15.6 545.4 89l-12 10.5Z" data-name="strand 39"/>
    <path d="M274.6 647c2.7 61.9-69.4 139-129 92.3-5.6-5.5-18-14.6-17-21.4a81.2 81.2 0 0 0 18.3 19.8c30 25.3 72 10.7 94.6-17.2A108.4 108.4 0 0 0 269 647Z" data-name="strand 34"/>
    <path d="M296 687.7c-13.2 58.2-51.7 128.4-120.4 89.9-25.5-17.6-27.8-22.8 1.1-2 104.2 46.6 98.2-101 119.4-87.9Z" data-name="strand 31"/>
    <path d="M239.8 455.7c-76-45.1-105.4-165.2-15.8-216 7-10.6 45.6-49.4 49.4-24.2q-3.3.8-6.4 1.8c8.7-2.3 15-1.2 15.8 5.9-55 3.8-84 55-58.1 104.9 14.8 23.5 11.8 23.8-2.4 1.2a88.6 88.6 0 0 1-5.5-76c-74.3 52.1-44.5 154.6 23 202.4Z" data-name="strand 28"/>
    <path d="M393.1 619.8a183.2 183.2 0 0 0-18.5-28.1c-.2-1-2.9.4-4 1-5 3.8-2.4 5.4 0 8.4 35 37.2 25.4 96.2-15.4 126.1-27.9 17.5-23.7 18.4 1.3 1.8a95.9 95.9 0 0 0 40.7-77.3c17.4 46.3-4.6 94.6-64 103.2 74.6 2.6 95.2-79.9 59.9-135.1Z" data-name="strand 15"/>
    <path d="M303.7 266C141 281.1 151.9 497.4 259.5 578c-96.9-66.5-129.5-249-7.7-308.4 12-4 55.8-26.7 51.9-3.8Z" data-name="strand 13"/>
    <path d="M641.7 780.4c17 55.8 57.6 117.7 122.4 117.2 21.2 1.6 40.7-13.6 55.2-23-46.9 52.3-128 18.1-158-35.6a248.9 248.9 0 0 1-27.1-56.3Z" data-name="strand 12"/>
    <path d="M723.2 626.9c-36.5 150.6 118.4 120.6 39.6 268.2 23.7-63.3 29.9-95.4-27.4-144.7a125.8 125.8 0 0 1-30.8-74.4c-.3-4.3-.7-10-.6-14.3a221.1 221.1 0 0 1 3.4-38Z" data-name="strand 7"/>
    <path d="M737.8 565c.5 36.7 12.7 77.2 44.8 98a286 286 0 0 1 114.1 154.9c-23.7-65.3-74-122.4-134.6-160.6-23.9-24.1-34.6-58.5-36-91.9Z" data-name="strand 6"/>
    <path d="M351.2 936.8c-34.5-62.4-81-50-126.4-88.3-32 41.3-48 79.6-11 124-47.9-39-24.3-94.3 7.3-135.3-.4-11.3 8.9-22.3 16.8-30-45.2 21.2-101.5 2-119.7-46 33.7 63 124.2 59.2 159.3-2 6-21.6 9.8-50.8 18.4-49.2a44.4 44.4 0 0 1 1 4.3 5.1 5.1 0 0 1 2.2.4c5.8 50.7-37.4 93.5-69.8 127.9 24.3 29.6 108 41.4 122 94.2Z" data-name="strand 3"/>
    <path d="M365.8 156.5c-9.3 68 32.8 126.6 68.4 180.3 19 34.6 5.8 89.7-23.4 111 40.7-46.1 36.6-96.7-3.1-141.5-30-44-56-95.8-49.2-150.6Z" data-name="strand 2"/>
    <path d="M652.8 160.3c41.8 11.3 77.7 42.4 82.8 87.2 8.6 39.5 27 77.8 24.7 118.8-2.1 25.8-6.6 58.7-19 78.5 8.2-25.5 13.9-52 13.8-78.6.7-27-9.3-52-17.7-77.2-9.4-24.4-13-51.6-26.1-74.2-28.8-43.2-74.3-24.3-58.5-54.5Z" data-name="strand 1"/>
  </g>
</svg>
