<svg xmlns="http://www.w3.org/2000/svg" viewBox="0 0 1000 1000">
  <g data-name="Strands A">
    <path d="M659.2 124.5C714.8 149 762.4 200 772.6 261c2.8 38.8-9.9 77.5-10 116.6-4.5 34.3 7.4 65 24.4 94 8.9 21.7 9.2 46 6 68.8-.4 51 61.9 39.5 68 98.8 4.1 26.2-1.1 63.7-20 80.2a98.6 98.6 0 0 0 16.6-38.2c14.7-103.2-52.9-75-68.3-130-1.6-24.3 4.5-49.3-5.4-72.8-32-54.7-31.3-81.7-25-143.5 5.2-42.3 13.6-82.3-12.3-120.3a219.3 219.3 0 0 0-24.7-33 189.1 189.1 0 0 0-66.9-47Z" data-name="strand 41"/>
    <path d="M254 587.7c-50 46.3-28 112.2 9 159 42.4 40.6 79.3 109 37 162.7 13.2-24 22.8-57.3 10-86.3-13.5-44.9-56.7-69.8-76-111.8-15.4-27-22.6-60.3-11.3-90.2 4.5-9.7 21.5-49.9 31.4-33.4Z" data-name="strand 33"/>
    <path d="M314.7 945.4c-18.5 6.4-38.8 1.6-55.1-8 18.7 5.9 46.8 15.5 65.7-1.7 24-21.3 26.7-59.9 18-89.2-14.3-51.2-62.2-81.2-91-123a113.3 113.3 0 0 1-16.7-47.7c-25.5 54.5-66.9 99.4-132.9 67.7 7-1.7 19.4 6.2 28.7 5.7 85.5 15.2 97.2-109 116.7-134.6 6.1-12.4 14.2-19.7 23.4-7-71.1 93.2 30.2 138 67.6 210.4 21.3 39.3 23 107-24.4 127.4Z" data-name="strand 27"/>
    <path d="M184.5 404.1c-41.6 17-73.4 60.5-65 106.6-18-34.5 29.8-117.2 65-106.6Z" data-name="strand 26"/>
    <path d="M236.4 385.8c-38.5 54.5-64.2 35-111 53.8-28 17-42 55-25.5 84.5-23.8-28.4 1-82.8 37.2-93 39.1-4.4 73.3-11.5 95.5-48Z" data-name="strand 25"/>
    <path d="M307.5 739c-5.5 34.1-18.7 83.8-61.4 83-30.6-3.5-61.8 21.2-60.4 53-.8 16.2 13.2 30.4 19 41.4a68.4 68.4 0 0 1-18-25.7c-13.3-31 11.2-68 43.5-72.5 15-1.6 31.3.4 42.9-11 18.5-17.8 23.3-44.9 27.2-69.3Z" data-name="strand 20"/>
    <path d="M361 217.6c-6.3 84 44.6 214.3 147.8 191.7C416 449 321.8 277.8 361 217.6Z" data-name="strand 18"/>
    <path d="M907.5 816c14 11.6 17.9 34.9 2.5 46.9-42.8 20.2-84-21-109.9-67.1a98.6 98.6 0 0 0 20.7 18.2c29.2 20 49.5-17.1 78.6-14.6a74 74 0 0 1 31.2 7.9c-8.7-10.4-33.1-12.4-48-9.3-16 2.8-27.8 19-44.6 16.2-27.8-8.3-47.9-39-59-71.8 36 28 104.6 1.3 125.8 49.1-20-65-114.2-12.8-132.7-81.3-3.1-57.3 19.6-93.4-28.8-151.4-42 27.4 8.8 25 10.8 85.4-7.6 57.5 4 117.4 39.2 164.6 23.3 35 68.5 79.3 113.8 62.1 21.8-10.3 20.1-48.2.4-55Z" data-name="strand 9"/>
  </g>
</svg>
